<svg width="19" height="17" viewBox="0 0 19 17" fill="none" xmlns="http://www.w3.org/2000/svg">
<path d="M15.8149 1.94535C14.6388 1.32744 13.3775 0.87219 12.0588 0.611444C12.0348 0.606416 12.0108 0.618987 11.9985 0.644146C11.8362 0.974473 11.6565 1.40541 11.5307 1.74412C10.1124 1.50099 8.7013 1.50099 7.31201 1.74412C7.18616 1.39788 6.99996 0.974473 6.83702 0.644146C6.82466 0.619828 6.80066 0.607257 6.77665 0.611444C5.45866 0.871358 4.19741 1.3266 3.02052 1.94535C3.01033 1.95038 3.00161 1.95877 2.99581 1.96967C0.60348 6.06193 -0.0518787 10.0536 0.269618 13.9958C0.271073 14.0151 0.280529 14.0335 0.293621 14.0453C1.87201 15.3725 3.40095 16.1782 4.9015 16.7122C4.92551 16.7206 4.95096 16.7106 4.96624 16.6879C5.3212 16.1329 5.6376 15.5477 5.9089 14.9323C5.92491 14.8962 5.90962 14.8534 5.8769 14.8392C5.37502 14.6213 4.89713 14.3554 4.43743 14.0537C4.40107 14.0293 4.39816 13.9698 4.43161 13.9413C4.52835 13.8583 4.62511 13.7719 4.71749 13.6848C4.7342 13.6688 4.75748 13.6654 4.77713 13.6755C7.79714 15.2543 11.0666 15.2543 14.0511 13.6755C14.0707 13.6646 14.094 13.668 14.1115 13.6839C14.2038 13.7711 14.3006 13.8583 14.398 13.9413C14.4315 13.9698 14.4293 14.0293 14.3929 14.0537C13.9332 14.3614 13.4554 14.6213 12.9527 14.8384C12.9201 14.8526 12.9054 14.8962 12.9214 14.9323C13.1986 15.5468 13.515 16.1321 13.8634 16.6871C13.8779 16.7106 13.9042 16.7206 13.9281 16.7122C15.4359 16.1782 16.9649 15.3725 18.5433 14.0453C18.5571 14.0335 18.5659 14.0159 18.5673 13.9967C18.9521 9.43901 17.9228 5.48009 15.8389 1.9705C15.8338 1.95877 15.8252 1.95038 15.8149 1.94535ZM6.35989 11.5954C5.45066 11.5954 4.70147 10.6396 4.70147 9.46585C4.70147 8.29208 5.43612 7.33635 6.35989 7.33635C7.2909 7.33635 8.03282 8.30049 8.01829 9.46585C8.01829 10.6396 7.28362 11.5954 6.35989 11.5954ZM12.4916 11.5954C11.5824 11.5954 10.8332 10.6396 10.8332 9.46585C10.8332 8.29208 11.5678 7.33635 12.4916 7.33635C13.4226 7.33635 14.1645 8.30049 14.15 9.46585C14.15 10.6396 13.4226 11.5954 12.4916 11.5954Z" fill="white"/>
</svg>
