<svg width="19" height="18" viewBox="0 0 19 18" fill="none" xmlns="http://www.w3.org/2000/svg">
<path d="M9.22729 0.000576698C4.12979 0.000576698 0 4.13383 0 9.22787C0 13.3069 2.64362 16.7643 6.30743 17.984C6.77052 18.0711 6.93777 17.7856 6.93777 17.5388C6.93777 17.3196 6.93258 16.74 6.92912 15.9707C4.36105 16.5267 3.8201 14.7302 3.8201 14.7302C3.39968 13.6668 2.79298 13.3813 2.79298 13.3813C1.95792 12.8109 2.85931 12.823 2.85931 12.823C3.78434 12.8859 4.27108 13.7717 4.27108 13.7717C5.09404 15.1835 6.43027 14.7752 6.95911 14.5376C7.03984 13.943 7.28033 13.5341 7.54215 13.3063C5.4937 13.0751 3.3397 12.2821 3.3397 8.74632C3.3397 7.73651 3.69726 6.91412 4.28838 6.26821C4.18631 6.03695 3.87373 5.09692 4.3697 3.82586C4.3697 3.82586 5.14191 3.57961 6.9072 4.77224C7.64596 4.56751 8.43028 4.46543 9.21402 4.46024C9.99834 4.46543 10.7821 4.56808 11.5208 4.77224C13.2758 3.57961 14.0474 3.82586 14.0474 3.82586C14.5428 5.09692 14.2302 6.03638 14.1402 6.26821C14.7256 6.91412 15.0832 7.73708 15.0832 8.74632C15.0832 12.2902 12.9263 13.0716 10.8755 13.2971C11.1962 13.5733 11.4966 14.1414 11.4966 15.0036C11.4966 16.2377 11.4851 17.232 11.4851 17.5324C11.4851 17.7723 11.6466 18.0607 12.1218 17.9678C15.8127 16.7608 18.4534 13.3006 18.4534 9.22729C18.4534 4.13325 14.3236 0 9.22614 0L9.22729 0.000576698Z" fill="white"/>
</svg>
