<svg width="208" height="60" viewBox="0 0 208 60" fill="none" xmlns="http://www.w3.org/2000/svg">
<path fill-rule="evenodd" clip-rule="evenodd" d="M30 60C46.5685 60 60 46.5685 60 30C60 13.4315 46.5685 0 30 0C13.4315 0 0 13.4315 0 30C0 46.5685 13.4315 60 30 60ZM17 42.8565V18.8813L29.093 12.1609C31.4513 11.7371 33.2046 12.1609 34.535 13.3113L21.0517 20.8792L21.1121 44.9754L17 42.8565ZM43 38.1341L25.4046 47.6394V23.2411L37.4977 16.5807C39.8559 16.1569 41.6093 16.5807 42.9396 17.7311L29.4559 25.3588L29.3348 41.1001L39.2512 35.4694L39.3116 31.6556L34.7164 33.8957L34.5954 30.2633L43 25.783V38.1341Z" fill="white"/>
<path d="M87.75 38.0469C86.9271 39.1198 85.7865 39.9323 84.3281 40.4844C82.8698 41.0365 81.2135 41.3125 79.3594 41.3125C77.4531 41.3125 75.7656 40.8802 74.2969 40.0156C72.8281 39.151 71.6927 37.9167 70.8906 36.3125C70.099 34.6979 69.6875 32.8177 69.6562 30.6719V28.8906C69.6562 25.4531 70.4792 22.7708 72.125 20.8438C73.7708 18.9062 76.0677 17.9375 79.0156 17.9375C81.5469 17.9375 83.5573 18.5625 85.0469 19.8125C86.5365 21.0625 87.4323 22.8646 87.7344 25.2188H83.8594C83.4219 22.4792 81.8333 21.1094 79.0938 21.1094C77.3229 21.1094 75.974 21.75 75.0469 23.0312C74.1302 24.3021 73.6562 26.1719 73.625 28.6406V30.3906C73.625 32.849 74.1406 34.7604 75.1719 36.125C76.2135 37.4792 77.6562 38.1562 79.5 38.1562C81.5208 38.1562 82.9583 37.6979 83.8125 36.7812V32.3281H79.125V29.3281H87.75V38.0469ZM100.578 27.5625C100.078 27.4792 99.5625 27.4375 99.0312 27.4375C97.2917 27.4375 96.1198 28.1042 95.5156 29.4375V41H91.7188V24.0938H95.3438L95.4375 25.9844C96.3542 24.5156 97.625 23.7812 99.25 23.7812C99.7917 23.7812 100.24 23.8542 100.594 24L100.578 27.5625ZM112.609 41C112.443 40.6771 112.297 40.151 112.172 39.4219C110.964 40.6823 109.484 41.3125 107.734 41.3125C106.036 41.3125 104.651 40.8281 103.578 39.8594C102.505 38.8906 101.969 37.6927 101.969 36.2656C101.969 34.4635 102.635 33.0833 103.969 32.125C105.312 31.1562 107.229 30.6719 109.719 30.6719H112.047V29.5625C112.047 28.6875 111.802 27.9896 111.312 27.4688C110.823 26.9375 110.078 26.6719 109.078 26.6719C108.214 26.6719 107.505 26.8906 106.953 27.3281C106.401 27.7552 106.125 28.3021 106.125 28.9688H102.328C102.328 28.0417 102.635 27.1771 103.25 26.375C103.865 25.5625 104.698 24.9271 105.75 24.4688C106.812 24.0104 107.995 23.7812 109.297 23.7812C111.276 23.7812 112.854 24.2812 114.031 25.2812C115.208 26.2708 115.812 27.6667 115.844 29.4688V37.0938C115.844 38.6146 116.057 39.8281 116.484 40.7344V41H112.609ZM108.438 38.2656C109.188 38.2656 109.891 38.0833 110.547 37.7188C111.214 37.3542 111.714 36.8646 112.047 36.25V33.0625H110C108.594 33.0625 107.536 33.3073 106.828 33.7969C106.12 34.2865 105.766 34.9792 105.766 35.875C105.766 36.6042 106.005 37.1875 106.484 37.625C106.974 38.0521 107.625 38.2656 108.438 38.2656ZM123.344 24.0938L123.453 26.0469C124.703 24.5365 126.344 23.7812 128.375 23.7812C131.896 23.7812 133.688 25.7969 133.75 29.8281V41H129.953V30.0469C129.953 28.974 129.719 28.1823 129.25 27.6719C128.792 27.151 128.036 26.8906 126.984 26.8906C125.453 26.8906 124.312 27.5833 123.562 28.9688V41H119.766V24.0938H123.344ZM136.922 32.4219C136.922 29.8177 137.526 27.7292 138.734 26.1562C139.943 24.5729 141.562 23.7812 143.594 23.7812C145.385 23.7812 146.833 24.4062 147.938 25.6562V17H151.734V41H148.297L148.109 39.25C146.974 40.625 145.458 41.3125 143.562 41.3125C141.583 41.3125 139.979 40.5156 138.75 38.9219C137.531 37.3281 136.922 35.1615 136.922 32.4219ZM140.719 32.75C140.719 34.4688 141.047 35.8125 141.703 36.7812C142.37 37.7396 143.312 38.2188 144.531 38.2188C146.083 38.2188 147.219 37.526 147.938 36.1406V28.9219C147.24 27.5677 146.115 26.8906 144.562 26.8906C143.333 26.8906 142.385 27.3802 141.719 28.3594C141.052 29.3281 140.719 30.7917 140.719 32.75ZM163.141 41.3125C160.734 41.3125 158.781 40.5573 157.281 39.0469C155.792 37.526 155.047 35.5052 155.047 32.9844V32.5156C155.047 30.8281 155.37 29.3229 156.016 28C156.672 26.6667 157.589 25.6302 158.766 24.8906C159.943 24.151 161.255 23.7812 162.703 23.7812C165.005 23.7812 166.781 24.5156 168.031 25.9844C169.292 27.4531 169.922 29.5312 169.922 32.2188V33.75H158.875C158.99 35.1458 159.453 36.25 160.266 37.0625C161.089 37.875 162.12 38.2812 163.359 38.2812C165.099 38.2812 166.516 37.5781 167.609 36.1719L169.656 38.125C168.979 39.1354 168.073 39.9219 166.938 40.4844C165.812 41.0365 164.547 41.3125 163.141 41.3125ZM162.688 26.8281C161.646 26.8281 160.802 27.1927 160.156 27.9219C159.521 28.651 159.115 29.6667 158.938 30.9688H166.172V30.6875C166.089 29.4167 165.75 28.4583 165.156 27.8125C164.562 27.1562 163.74 26.8281 162.688 26.8281ZM183.125 39.3438C182.01 40.6562 180.427 41.3125 178.375 41.3125C176.542 41.3125 175.151 40.776 174.203 39.7031C173.266 38.6302 172.797 37.0781 172.797 35.0469V24.0938H176.594V35C176.594 37.1458 177.484 38.2188 179.266 38.2188C181.109 38.2188 182.354 37.5573 183 36.2344V24.0938H186.797V41H183.219L183.125 39.3438ZM199.516 27.5625C199.016 27.4792 198.5 27.4375 197.969 27.4375C196.229 27.4375 195.057 28.1042 194.453 29.4375V41H190.656V24.0938H194.281L194.375 25.9844C195.292 24.5156 196.562 23.7812 198.188 23.7812C198.729 23.7812 199.177 23.8542 199.531 24L199.516 27.5625Z" fill="white"/>
</svg>
