<svg width="60" height="60" viewBox="0 0 60 60" fill="none" xmlns="http://www.w3.org/2000/svg">
<path fill-rule="evenodd" clip-rule="evenodd" d="M30 60C46.5685 60 60 46.5685 60 30C60 13.4315 46.5685 0 30 0C13.4315 0 0 13.4315 0 30C0 46.5685 13.4315 60 30 60ZM17 42.8565V18.8813L29.093 12.1609C31.4513 11.7371 33.2046 12.1609 34.535 13.3113L21.0517 20.8792L21.1121 44.9754L17 42.8565ZM43 38.1341L25.4046 47.6394V23.2411L37.4977 16.5807C39.8559 16.1569 41.6093 16.5807 42.9396 17.7311L29.4559 25.3588L29.3348 41.1001L39.2512 35.4694L39.3116 31.6556L34.7164 33.8957L34.5954 30.2633L43 25.783V38.1341Z" fill="white"/>
</svg>
