<svg width="19" height="17" viewBox="0 0 19 17" fill="none" xmlns="http://www.w3.org/2000/svg">
<path d="M18.4219 2.46537C18.132 2.60217 17.834 2.71762 17.5294 2.81135C17.89 2.37753 18.1649 1.86709 18.3327 1.30851C18.3703 1.1833 18.3313 1.04626 18.2346 0.96437C18.138 0.88242 18.0037 0.872604 17.8974 0.939671C17.2506 1.34777 16.5528 1.64106 15.8212 1.81256C15.0842 1.04638 14.0832 0.610352 13.0484 0.610352C10.864 0.610352 9.0869 2.50096 9.0869 4.82482C9.0869 5.00785 9.09779 5.18986 9.11934 5.36934C6.40878 5.11614 3.88882 3.69874 2.15837 1.44043C2.0967 1.35993 2.0017 1.31655 1.90443 1.32485C1.8071 1.33296 1.71966 1.39135 1.67049 1.48109C1.31952 2.1218 1.13397 2.8546 1.13397 3.6002C1.13397 4.6157 1.47477 5.57922 2.07676 6.33209C1.89372 6.26465 1.71609 6.18035 1.54656 6.08023C1.45554 6.02633 1.34446 6.02716 1.25404 6.08232C1.16356 6.13748 1.10683 6.23893 1.10445 6.34982C1.10403 6.36851 1.10403 6.38719 1.10403 6.40613C1.10403 7.92195 1.87086 9.28666 3.04324 10.0305C2.94252 10.0198 2.84186 10.0043 2.74186 9.98393C2.63876 9.96297 2.53274 10.0014 2.46321 10.0851C2.39356 10.1687 2.37053 10.2852 2.40261 10.3916C2.83656 11.833 3.95383 12.8932 5.30449 13.2165C4.18426 13.9629 2.90317 14.3539 1.55834 14.3539C1.27773 14.3539 0.995514 14.3364 0.719309 14.3016C0.582099 14.2843 0.450901 14.3705 0.404173 14.5093C0.357444 14.6482 0.406971 14.803 0.523703 14.8826C2.25135 16.0611 4.24902 16.6841 6.30062 16.6841C10.3338 16.6841 12.8569 14.6607 14.2632 12.9632C16.0168 10.8466 17.0226 8.04506 17.0226 5.27694C17.0226 5.1613 17.0209 5.04452 17.0176 4.92811C17.7095 4.37353 18.3052 3.70235 18.7899 2.93092C18.8635 2.81375 18.8556 2.65891 18.7703 2.55106C18.6851 2.44314 18.5431 2.40825 18.4219 2.46537Z" fill="white"/>
</svg>
